Coordinates
version=1
nRows=19
nColumns=24
inDegrees=yes

Units are S.I. units (second, meters, Newtons, ...)
Angles are in degrees.

endheader
time	pelvis_tilt	pelvis_list	pelvis_rotation	pelvis_tx	pelvis_ty	pelvis_tz	hip_flexion_r	hip_adduction_r	hip_rotation_r	knee_angle_r	ankle_angle_r	subtalar_angle_r	mtp_angle_r	hip_flexion_l	hip_adduction_l	hip_rotation_l	knee_angle_l	ankle_angle_l	subtalar_angle_l	mtp_angle_l	lumbar_extension	lumbar_bending	lumbar_rotation
      1.20400000	     -3.77826377	     -2.50745141	     -9.93023058	     -0.03241981	      0.86704587	      0.30275057	    -17.11987611	      4.75793002	      7.47514489	    -10.50904249	     19.56962330	     11.28281154	     12.34304621	     35.17728795	     -7.45676100	    -12.95687937	     -6.73437304	      7.19580084	     -0.59576383	      2.03056396	     -3.32773069	      3.76896476	     16.54996536
      1.20816667	     -3.74140260	     -2.46679284	    -10.00998306	     -0.02647535	      0.86608629	      0.30263134	    -17.34511452	      4.61747822	      7.49126239	    -10.93731534	     19.41025181	     11.28452836	     12.37592593	     35.24973206	     -7.43807243	    -12.83483078	     -7.46458568	      7.16061782	     -0.69668745	      2.03659572	     -3.36909396	      3.63227990	     16.56364704
      1.21233333	     -3.74954453	     -2.39534402	    -10.10538213	     -0.02045847	      0.86510061	      0.30252587	    -17.49577399	      4.44932626	      7.52016196	    -11.41492989	     19.26272862	     11.28880361	     12.43953199	     35.35146418	     -7.40121969	    -12.75318688	     -8.20803731	      7.11851736	     -0.80094203	      2.04989386	     -3.31656219	      3.44786939	     16.59880151
      1.21650000	     -3.78788753	     -2.31532736	    -10.20022502	     -0.01439801	      0.86410795	      0.30240928	    -17.58987502	      4.27833900	      7.53954418	    -11.94071109	     19.09545706	     11.31171754	     12.56563465	     35.47101663	     -7.35684598	    -12.67203395	     -8.95538437	      7.01235861	     -0.90968027	      2.07801065	     -3.22545481	      3.25583186	     16.65545603
      1.22066667	     -3.80119786	     -2.18518484	    -10.28278493	     -0.00824066	      0.86318953	      0.30221147	    -17.68411115	      4.03678870	      7.43872691	    -12.49740581	     18.92561723	     11.54970696	     14.83767495	     35.51825813	     -7.23035014	    -12.53921681	     -9.62999677	      6.80328630	     -1.20942572	      2.63632505	     -3.16077198	      2.99197697	     16.81249790
      1.22483333	     -3.85909888	     -2.09701261	    -10.35763581	     -0.00208325	      0.86226904	      0.30207620	    -17.74873611	      3.87533975	      7.51636952	    -13.03658705	     18.61290386	     11.37644214	     14.91998368	     35.62775142	     -7.16283430	    -12.45805086	    -10.35988197	      6.54761015	     -1.32281321	      2.65944523	     -3.04099588	      2.79021928	     16.74188010
      1.22900000	     -3.91579204	     -1.98522539	    -10.41599303	      0.00414864	      0.86138870	      0.30188284	    -17.79632599	      3.68624478	      7.52794189	    -13.60336919	     18.30102342	     11.31415375	     15.08255005	     35.71562497	     -7.04915178	    -12.34175710	    -11.06325687	      6.24381317	     -1.57523247	      2.70439196	     -2.91002915	      2.55887372	     16.72314978
      1.23316667	     -3.97507352	     -1.85040035	    -10.46713230	      0.01043423	      0.86055669	      0.30165841	    -17.81460094	      3.47356658	      7.50409427	    -14.21386403	     17.95265944	     11.28267456	     15.29049488	     35.78501982	     -6.89946643	    -12.21835933	    -11.73227746	      5.86177837	     -1.88887178	      2.75959134	     -2.76427293	      2.29859300	     16.70667713
      1.23733333	     -4.01244871	     -1.70680318	    -10.49271126	      0.01676548	      0.85979124	      0.30135015	    -17.83348145	      3.24557328	      7.39217332	    -14.85384416	     17.53069828	     11.27041735	     19.24949461	     35.82385139	     -6.71132541	    -12.06670278	    -12.38272418	      5.41714682	     -2.34594903	      3.90469767	     -2.64444555	      2.04438588	     16.66742841
      1.24150000	     -4.09183398	     -1.55159103	    -10.52566558	      0.02314202	      0.85903706	      0.30109049	    -17.79949221	      3.02389570	      7.36566740	    -15.50956775	     17.06516380	     11.18432536	     19.28822078	     35.90437269	     -6.53220280	    -11.98867712	    -13.04406973	      4.94406284	     -2.63893728	      3.91548051	     -2.46445091	      1.75516380	     16.63468041
      1.24566667	     -4.18815473	     -1.38600077	    -10.54058573	      0.02953635	      0.85830424	      0.30076400	    -17.71375623	      2.79694982	      7.29561359	    -16.22532995	     16.59712655	     11.12567379	     19.39769648	     35.99719250	     -6.32051143	    -11.84338433	    -13.68368912	      4.40395038	     -3.10246452	      3.94229617	     -2.25898645	      1.46170593	     16.57375036
      1.24983333	     -4.28263156	     -1.21632340	    -10.52751429	      0.03593083	      0.85760558	      0.30036683	    -17.59673888	      2.57153922	      7.16365627	    -17.00133770	     16.15729283	     11.10633255	     19.68767932	     36.08781042	     -6.07176249	    -11.61834211	    -14.30838780	      3.81952281	     -3.77598336	      4.01267449	     -2.07089009	      1.19129732	     16.48467778
      1.25400000	     -4.37781432	     -1.01695264	    -10.52036494	      0.04242604	      0.85699349	      0.30001183	    -17.47957581	      2.31552767	      7.06639027	    -17.75474237	     15.53078464	     11.04355577	     19.87134272	     36.17807936	     -5.82276523	    -11.56014053	    -14.94950720	      3.26929674	     -4.10563723	      4.05185612	     -1.85149939	      0.84357578	     16.41576145
      1.25816667	     -4.50285604	     -0.83146149	    -10.47959395	      0.04884639	      0.85634846	      0.29953339	    -17.26849788	      2.08686361	      6.88799336	    -18.63254595	     15.02388777	     11.00029422	     20.35257556	     36.31507451	     -5.54149228	    -11.31886163	    -15.59317913	      2.63582799	     -4.87808257	      4.15309844	     -1.61891495	      0.57088533	     16.28489619
      1.26233333	     -4.58488583	     -0.60479136	    -10.43729088	      0.05538499	      0.85584609	      0.29906255	    -17.10034562	      1.79622568	      6.66294311	    -19.47361088	     14.25026091	     10.96154217	     25.37409944	     36.39978000	     -5.23299895	    -11.22489152	    -16.24419058	      2.09205817	     -5.33712863	      5.25261392	     -1.42180013	      0.19832790	     16.19549034
      1.26650000	     -4.71219986	     -0.41010872	    -10.37975410	      0.06186980	      0.85532723	      0.29859454	    -16.86236194	      1.57067821	      6.51661823	    -20.37192790	     13.55669743	     10.83465433	     25.44806204	     36.56131586	     -4.95837135	    -11.09612104	    -16.95276368	      1.53794841	     -5.82954323	      5.26493764	     -1.18094988	     -0.11661633	     16.07223408
      1.27066667	     -4.83575523	     -0.19234309	    -10.30588437	      0.06838219	      0.85486023	      0.29807784	    -16.59383747	      1.31693109	      6.30524339	    -21.32077404	     12.82679973	     10.77323936	     25.60160261	     36.72074592	     -4.64803029	    -10.95167172	    -17.66496658	      1.02770951	     -6.34282128	      5.28353694	     -0.93749735	     -0.46251993	     15.94007819
      1.27483333	     -4.89628413	      0.06773786	    -10.19711681	      0.07494670	      0.85454834	      0.29745467	    -16.36636904	      0.99774485	      5.97515263	    -22.29282729	     12.03210804	     10.81546178	     26.53640866	     36.78486480	     -4.24487016	    -10.73294894	    -18.30468276	      0.50699466	     -6.95890118	      5.39579707	     -0.78005084	     -0.87289382	     15.78488539
      1.27900000	     -5.03598192	      0.28182808	    -10.11378872	      0.08148755	      0.85416083	      0.29694782	    -16.04010528	      0.75890662	      5.79201514	    -23.29255038	     11.16551321	     10.69208255	     26.66251885	     37.00323645	     -3.96497982	    -10.68637395	    -19.14113322	      0.22188486	     -7.21427115	      5.40454885	     -0.50868510	     -1.23501874	     15.68772363
